<mxfile host="app.diagrams.net" modified="2021-06-07T08:36:06.251Z" agent="5.0 (X11; Linux x86_64) AppleWebKit/537.36 (KHTML, like Gecko) Chrome/86.0.4240.198 Safari/537.36" etag="cud6FU1poBZEwUptdp2n" version="14.7.5" type="github">
  <diagram name="Page-1" id="13e1069c-82ec-6db2-03f1-153e76fe0fe0">
    <mxGraphModel dx="1422" dy="866" grid="1" gridSize="10" guides="1" tooltips="1" connect="1" arrows="1" fold="1" page="1" pageScale="1" pageWidth="1100" pageHeight="850" background="none" math="0" shadow="0">
      <root>
        <mxCell id="0" />
        <mxCell id="1" parent="0" />
        <mxCell id="7baba1c4bc27f4b0-2" value="sever&lt;br&gt;" style="shape=umlLifeline;perimeter=lifelinePerimeter;whiteSpace=wrap;html=1;container=1;collapsible=0;recursiveResize=0;outlineConnect=0;rounded=1;shadow=0;comic=0;labelBackgroundColor=none;strokeWidth=1;fontFamily=Verdana;fontSize=12;align=center;" parent="1" vertex="1">
          <mxGeometry x="398" y="60" width="100" height="740" as="geometry" />
        </mxCell>
        <mxCell id="KrJD1M74X-GiAtT-vPwU-2" value="" style="html=1;points=[];perimeter=orthogonalPerimeter;fillColor=#d5e8d4;strokeColor=#82b366;" parent="7baba1c4bc27f4b0-2" vertex="1">
          <mxGeometry x="45" y="78" width="10" height="170" as="geometry" />
        </mxCell>
        <mxCell id="KrJD1M74X-GiAtT-vPwU-12" value="" style="html=1;points=[];perimeter=orthogonalPerimeter;fillColor=#fff2cc;strokeColor=#d6b656;" parent="7baba1c4bc27f4b0-2" vertex="1">
          <mxGeometry x="45" y="388" width="10" height="142" as="geometry" />
        </mxCell>
        <mxCell id="KrJD1M74X-GiAtT-vPwU-19" value="" style="html=1;points=[];perimeter=orthogonalPerimeter;fillColor=#fff2cc;strokeColor=#d6b656;" parent="7baba1c4bc27f4b0-2" vertex="1">
          <mxGeometry x="45" y="560" width="10" height="140" as="geometry" />
        </mxCell>
        <mxCell id="t9RbnjW_wrMgY7pvLfbR-1" value="" style="html=1;points=[];perimeter=orthogonalPerimeter;fillColor=#fff2cc;strokeColor=#d6b656;" parent="7baba1c4bc27f4b0-2" vertex="1">
          <mxGeometry x="50" y="458" width="10" height="52" as="geometry" />
        </mxCell>
        <mxCell id="t9RbnjW_wrMgY7pvLfbR-2" value="创建任务" style="edgeStyle=orthogonalEdgeStyle;html=1;align=left;spacingLeft=2;endArrow=block;rounded=0;entryX=1;entryY=0;fillColor=#fff2cc;strokeColor=#d6b656;" parent="7baba1c4bc27f4b0-2" target="t9RbnjW_wrMgY7pvLfbR-1" edge="1">
          <mxGeometry relative="1" as="geometry">
            <mxPoint x="60" y="438" as="sourcePoint" />
            <Array as="points">
              <mxPoint x="60" y="428" />
              <mxPoint x="90" y="428" />
              <mxPoint x="90" y="458" />
            </Array>
          </mxGeometry>
        </mxCell>
        <mxCell id="t9RbnjW_wrMgY7pvLfbR-3" value="" style="html=1;points=[];perimeter=orthogonalPerimeter;fillColor=#fff2cc;strokeColor=#d6b656;" parent="7baba1c4bc27f4b0-2" vertex="1">
          <mxGeometry x="50" y="408" width="10" height="40" as="geometry" />
        </mxCell>
        <mxCell id="RCTlOwdvPqw-aKPow7Ji-30" value="" style="html=1;points=[];perimeter=orthogonalPerimeter;rounded=1;fillColor=#fff2cc;strokeColor=#d6b656;" vertex="1" parent="7baba1c4bc27f4b0-2">
          <mxGeometry x="50" y="580" width="10" height="40" as="geometry" />
        </mxCell>
        <mxCell id="RCTlOwdvPqw-aKPow7Ji-31" value="监听&lt;br&gt;任务结果队列" style="edgeStyle=orthogonalEdgeStyle;html=1;align=left;spacingLeft=2;endArrow=block;rounded=0;entryX=1;entryY=0;fillColor=#fff2cc;strokeColor=#d6b656;" edge="1" target="RCTlOwdvPqw-aKPow7Ji-30" parent="7baba1c4bc27f4b0-2">
          <mxGeometry relative="1" as="geometry">
            <mxPoint x="55" y="520" as="sourcePoint" />
            <Array as="points">
              <mxPoint x="85" y="520" />
            </Array>
          </mxGeometry>
        </mxCell>
        <mxCell id="7baba1c4bc27f4b0-4" value="obs/oss&lt;br&gt;" style="shape=umlLifeline;perimeter=lifelinePerimeter;whiteSpace=wrap;html=1;container=1;collapsible=0;recursiveResize=0;outlineConnect=0;rounded=1;shadow=0;comic=0;labelBackgroundColor=none;strokeWidth=1;fontFamily=Verdana;fontSize=12;align=center;" parent="1" vertex="1">
          <mxGeometry x="618" y="60" width="100" height="660" as="geometry" />
        </mxCell>
        <mxCell id="7baba1c4bc27f4b0-22" value="" style="html=1;points=[];perimeter=orthogonalPerimeter;rounded=0;shadow=0;comic=0;labelBackgroundColor=none;strokeWidth=1;fontFamily=Verdana;fontSize=12;align=center;fillColor=#d5e8d4;strokeColor=#82b366;" parent="7baba1c4bc27f4b0-4" vertex="1">
          <mxGeometry x="45" y="90" width="10" height="153" as="geometry" />
        </mxCell>
        <mxCell id="KrJD1M74X-GiAtT-vPwU-10" value="" style="html=1;points=[];perimeter=orthogonalPerimeter;fillColor=#d5e8d4;strokeColor=#82b366;" parent="7baba1c4bc27f4b0-4" vertex="1">
          <mxGeometry x="45" y="273" width="10" height="97" as="geometry" />
        </mxCell>
        <mxCell id="7baba1c4bc27f4b0-8" value="app" style="shape=umlLifeline;perimeter=lifelinePerimeter;whiteSpace=wrap;html=1;container=1;collapsible=0;recursiveResize=0;outlineConnect=0;rounded=1;shadow=0;comic=0;labelBackgroundColor=none;strokeWidth=1;fontFamily=Verdana;fontSize=12;align=center;" parent="1" vertex="1">
          <mxGeometry x="178" y="60" width="100" height="740" as="geometry" />
        </mxCell>
        <mxCell id="7baba1c4bc27f4b0-9" value="" style="html=1;points=[];perimeter=orthogonalPerimeter;rounded=0;shadow=0;comic=0;labelBackgroundColor=none;strokeWidth=1;fontFamily=Verdana;fontSize=12;align=center;fillColor=#d5e8d4;strokeColor=#82b366;" parent="7baba1c4bc27f4b0-8" vertex="1">
          <mxGeometry x="45" y="88" width="10" height="282" as="geometry" />
        </mxCell>
        <mxCell id="KrJD1M74X-GiAtT-vPwU-16" value="" style="html=1;points=[];perimeter=orthogonalPerimeter;fillColor=#fff2cc;strokeColor=#d6b656;" parent="7baba1c4bc27f4b0-8" vertex="1">
          <mxGeometry x="45" y="575" width="10" height="92" as="geometry" />
        </mxCell>
        <mxCell id="7baba1c4bc27f4b0-23" value="获取上传签名&lt;br&gt;" style="html=1;verticalAlign=bottom;endArrow=block;labelBackgroundColor=none;fontFamily=Verdana;fontSize=12;fillColor=#d5e8d4;strokeColor=#82b366;" parent="1" source="7baba1c4bc27f4b0-9" edge="1">
          <mxGeometry relative="1" as="geometry">
            <mxPoint x="588" y="308" as="sourcePoint" />
            <mxPoint x="438" y="188" as="targetPoint" />
            <Array as="points">
              <mxPoint x="358" y="188" />
            </Array>
          </mxGeometry>
        </mxCell>
        <mxCell id="KrJD1M74X-GiAtT-vPwU-3" value="对上传url签名&lt;br&gt;" style="html=1;verticalAlign=bottom;startArrow=oval;startFill=1;endArrow=block;startSize=8;fillColor=#d5e8d4;strokeColor=#82b366;" parent="1" edge="1">
          <mxGeometry width="60" relative="1" as="geometry">
            <mxPoint x="458" y="208" as="sourcePoint" />
            <mxPoint x="667.5" y="208" as="targetPoint" />
          </mxGeometry>
        </mxCell>
        <mxCell id="KrJD1M74X-GiAtT-vPwU-5" value="返回签名&lt;br&gt;" style="html=1;verticalAlign=bottom;endArrow=open;dashed=1;endSize=8;fillColor=#d5e8d4;strokeColor=#82b366;" parent="1" edge="1">
          <mxGeometry relative="1" as="geometry">
            <mxPoint x="658" y="278" as="sourcePoint" />
            <mxPoint x="458" y="278" as="targetPoint" />
          </mxGeometry>
        </mxCell>
        <mxCell id="KrJD1M74X-GiAtT-vPwU-6" value="返回签名,url和其他必要信息" style="html=1;verticalAlign=bottom;endArrow=open;dashed=1;endSize=8;fillColor=#d5e8d4;strokeColor=#82b366;" parent="1" edge="1">
          <mxGeometry relative="1" as="geometry">
            <mxPoint x="438" y="292" as="sourcePoint" />
            <mxPoint x="238" y="292" as="targetPoint" />
          </mxGeometry>
        </mxCell>
        <mxCell id="KrJD1M74X-GiAtT-vPwU-9" value="上传到url" style="html=1;verticalAlign=bottom;startArrow=oval;startFill=1;endArrow=block;startSize=8;fillColor=#d5e8d4;strokeColor=#82b366;" parent="1" edge="1">
          <mxGeometry width="60" relative="1" as="geometry">
            <mxPoint x="238" y="360" as="sourcePoint" />
            <mxPoint x="667.5" y="360" as="targetPoint" />
          </mxGeometry>
        </mxCell>
        <mxCell id="KrJD1M74X-GiAtT-vPwU-11" value="上传成功状态码" style="html=1;verticalAlign=bottom;endArrow=open;dashed=1;endSize=8;fillColor=#d5e8d4;strokeColor=#82b366;" parent="1" edge="1">
          <mxGeometry relative="1" as="geometry">
            <mxPoint x="663" y="394.5" as="sourcePoint" />
            <mxPoint x="233" y="394.5" as="targetPoint" />
            <Array as="points">
              <mxPoint x="613" y="394.5" />
            </Array>
          </mxGeometry>
        </mxCell>
        <mxCell id="KrJD1M74X-GiAtT-vPwU-14" value="提交url任务" style="html=1;verticalAlign=bottom;startArrow=oval;startFill=1;endArrow=block;startSize=8;fillColor=#fff2cc;strokeColor=#d6b656;" parent="1" edge="1">
          <mxGeometry width="60" relative="1" as="geometry">
            <mxPoint x="238" y="488" as="sourcePoint" />
            <mxPoint x="438" y="488" as="targetPoint" />
          </mxGeometry>
        </mxCell>
        <mxCell id="KrJD1M74X-GiAtT-vPwU-15" value="返回任务标识id" style="html=1;verticalAlign=bottom;endArrow=open;dashed=1;endSize=8;fillColor=#fff2cc;strokeColor=#d6b656;" parent="1" edge="1">
          <mxGeometry relative="1" as="geometry">
            <mxPoint x="442.5" y="570" as="sourcePoint" />
            <mxPoint x="233" y="570" as="targetPoint" />
          </mxGeometry>
        </mxCell>
        <mxCell id="KrJD1M74X-GiAtT-vPwU-18" value="轮讯任务id状态" style="html=1;verticalAlign=bottom;startArrow=oval;startFill=1;endArrow=block;startSize=8;fillColor=#fff2cc;strokeColor=#d6b656;" parent="1" edge="1">
          <mxGeometry width="60" relative="1" as="geometry">
            <mxPoint x="238" y="662" as="sourcePoint" />
            <mxPoint x="443" y="662" as="targetPoint" />
            <Array as="points">
              <mxPoint x="398" y="662" />
            </Array>
          </mxGeometry>
        </mxCell>
        <mxCell id="KrJD1M74X-GiAtT-vPwU-20" value="返回任务结果" style="html=1;verticalAlign=bottom;endArrow=open;dashed=1;endSize=8;fillColor=#fff2cc;strokeColor=#d6b656;" parent="1" edge="1">
          <mxGeometry relative="1" as="geometry">
            <mxPoint x="443.5" y="697" as="sourcePoint" />
            <mxPoint x="234" y="697" as="targetPoint" />
            <Array as="points">
              <mxPoint x="254" y="697" />
            </Array>
          </mxGeometry>
        </mxCell>
        <mxCell id="t9RbnjW_wrMgY7pvLfbR-4" value="" style="html=1;points=[];perimeter=orthogonalPerimeter;fillColor=#fff2cc;strokeColor=#d6b656;" parent="1" vertex="1">
          <mxGeometry x="223" y="460" width="10" height="120" as="geometry" />
        </mxCell>
        <mxCell id="RCTlOwdvPqw-aKPow7Ji-3" value="removal service(python)" style="shape=umlLifeline;perimeter=lifelinePerimeter;whiteSpace=wrap;html=1;container=1;collapsible=0;recursiveResize=0;outlineConnect=0;rounded=1;" vertex="1" parent="1">
          <mxGeometry x="878" y="60" width="100" height="660" as="geometry" />
        </mxCell>
        <mxCell id="RCTlOwdvPqw-aKPow7Ji-4" value="" style="html=1;points=[];perimeter=orthogonalPerimeter;rounded=1;fillColor=#fff2cc;strokeColor=#d6b656;" vertex="1" parent="1">
          <mxGeometry x="923" y="500" width="10" height="140" as="geometry" />
        </mxCell>
        <mxCell id="RCTlOwdvPqw-aKPow7Ji-5" value="提交任务到&lt;br&gt;任务队列" style="html=1;verticalAlign=bottom;startArrow=oval;startFill=1;endArrow=block;startSize=8;entryX=-0.2;entryY=0.475;entryDx=0;entryDy=0;entryPerimeter=0;fillColor=#fff2cc;strokeColor=#d6b656;" edge="1" parent="1">
          <mxGeometry width="60" relative="1" as="geometry">
            <mxPoint x="458" y="537" as="sourcePoint" />
            <mxPoint x="801" y="536" as="targetPoint" />
          </mxGeometry>
        </mxCell>
        <mxCell id="RCTlOwdvPqw-aKPow7Ji-6" value="mq&lt;br&gt;" style="shape=umlLifeline;perimeter=lifelinePerimeter;whiteSpace=wrap;html=1;container=1;collapsible=0;recursiveResize=0;outlineConnect=0;rounded=1;" vertex="1" parent="1">
          <mxGeometry x="758" y="60" width="100" height="660" as="geometry" />
        </mxCell>
        <mxCell id="RCTlOwdvPqw-aKPow7Ji-7" value="" style="html=1;points=[];perimeter=orthogonalPerimeter;rounded=1;fillColor=#fff2cc;strokeColor=#d6b656;" vertex="1" parent="1">
          <mxGeometry x="803" y="500" width="10" height="200" as="geometry" />
        </mxCell>
        <mxCell id="RCTlOwdvPqw-aKPow7Ji-9" value="确认提交到mq队列成功(不是到交换器)" style="html=1;verticalAlign=bottom;endArrow=open;dashed=1;endSize=8;fillColor=#fff2cc;strokeColor=#d6b656;" edge="1" parent="1">
          <mxGeometry relative="1" as="geometry">
            <mxPoint x="803" y="560" as="sourcePoint" />
            <mxPoint x="453" y="560" as="targetPoint" />
          </mxGeometry>
        </mxCell>
        <mxCell id="RCTlOwdvPqw-aKPow7Ji-32" value="任务成功到&lt;br&gt;任务结果队列" style="html=1;verticalAlign=bottom;endArrow=open;dashed=1;endSize=8;fillColor=#fff2cc;strokeColor=#d6b656;" edge="1" parent="1" source="RCTlOwdvPqw-aKPow7Ji-3">
          <mxGeometry relative="1" as="geometry">
            <mxPoint x="893" y="620" as="sourcePoint" />
            <mxPoint x="813" y="620" as="targetPoint" />
          </mxGeometry>
        </mxCell>
        <mxCell id="RCTlOwdvPqw-aKPow7Ji-34" value="" style="html=1;points=[];perimeter=orthogonalPerimeter;rounded=1;fillColor=#fff2cc;strokeColor=#d6b656;" vertex="1" parent="1">
          <mxGeometry x="925" y="560" width="10" height="40" as="geometry" />
        </mxCell>
        <mxCell id="RCTlOwdvPqw-aKPow7Ji-35" value="监听&lt;br&gt;任务队列" style="edgeStyle=orthogonalEdgeStyle;html=1;align=left;spacingLeft=2;endArrow=block;rounded=0;entryX=1;entryY=0;fillColor=#fff2cc;strokeColor=#d6b656;" edge="1" target="RCTlOwdvPqw-aKPow7Ji-34" parent="1">
          <mxGeometry relative="1" as="geometry">
            <mxPoint x="930" y="540" as="sourcePoint" />
            <Array as="points">
              <mxPoint x="960" y="540" />
            </Array>
          </mxGeometry>
        </mxCell>
        <mxCell id="RCTlOwdvPqw-aKPow7Ji-36" value="抠图服务" style="shape=umlFrame;whiteSpace=wrap;html=1;rounded=1;" vertex="1" parent="1">
          <mxGeometry x="110" y="10" width="940" height="800" as="geometry" />
        </mxCell>
      </root>
    </mxGraphModel>
  </diagram>
</mxfile>
